<svg width="47" height="53" viewBox="0 0 47 53" fill="none" xmlns="http://www.w3.org/2000/svg">
<path d="M6.45399 0.696152C3.27116 0.696152 0.687988 3.17997 0.687988 6.24038V46.8981C0.687988 49.9585 3.27116 52.4423 6.45399 52.4423H37.628C38.4564 52.4423 39.128 51.7707 39.128 50.9423V9.58846C39.128 8.76003 38.4564 8.08846 37.628 8.08846H31.44V20.1298C31.44 21.3157 30.1289 22.0326 29.1305 21.3926L25.674 19.1769L22.2175 21.3926C21.2191 22.0326 19.908 21.3157 19.908 20.1298V8.08846H6.45399C5.39304 8.08846 4.53199 7.26052 4.53199 6.24038C4.53199 5.22024 5.39304 4.39231 6.45399 4.39231H41.472C42.3004 4.39231 42.972 5.06388 42.972 5.89231V43.55C42.972 44.3784 43.6436 45.05 44.472 45.05H45.316C46.1444 45.05 46.816 44.3784 46.816 43.55V2.19615C46.816 1.36772 46.1444 0.696152 45.316 0.696152H6.45399Z" fill="#197F00"/>
</svg>
