<svg width="36" height="31" viewBox="0 0 36 31" fill="none" xmlns="http://www.w3.org/2000/svg">
<path d="M22.1433 0.738372C22.5687 0.858023 22.9292 1.14172 23.1455 1.52708C23.3617 1.91244 23.4161 2.36792 23.2966 2.79337L15.9133 29.1067C15.8542 29.3175 15.7542 29.5145 15.6189 29.6867C15.4837 29.8588 15.3158 30.0026 15.125 30.1098C14.9342 30.2171 14.7241 30.2857 14.5068 30.3117C14.2894 30.3378 14.0691 30.3208 13.8583 30.2617C13.6475 30.2026 13.4505 30.1026 13.2784 29.9673C13.1062 29.8321 12.9625 29.6642 12.8552 29.4734C12.748 29.2826 12.6793 29.0725 12.6533 28.8552C12.6272 28.6378 12.6442 28.4175 12.7033 28.2067L20.0866 1.89337C20.1457 1.6824 20.2458 1.48515 20.3811 1.31289C20.5165 1.14063 20.6845 0.996744 20.8755 0.88947C21.0665 0.782195 21.2768 0.713634 21.4944 0.687707C21.7119 0.66178 21.9324 0.678997 22.1433 0.738372ZM10.0116 7.25004C10.3241 7.56259 10.4996 7.98643 10.4996 8.42837C10.4996 8.87031 10.3241 9.29416 10.0116 9.60671L4.11998 15.5L10.0116 21.3917C10.1665 21.5464 10.2894 21.7302 10.3732 21.9324C10.457 22.1346 10.5002 22.3514 10.5003 22.5703C10.5004 22.7892 10.4574 23.006 10.3737 23.2083C10.2899 23.4105 10.1672 23.5944 10.0125 23.7492C9.85774 23.9041 9.67401 24.0269 9.47179 24.1108C9.26957 24.1946 9.05282 24.2378 8.8339 24.2379C8.61499 24.238 8.3982 24.1949 8.19592 24.1112C7.99364 24.0275 7.80983 23.9048 7.65498 23.75L0.583314 16.6784C0.270862 16.3658 0.0953369 15.942 0.0953369 15.5C0.0953369 15.0581 0.270862 14.6343 0.583314 14.3217L7.65498 7.25004C7.96753 6.93759 8.39137 6.76206 8.83331 6.76206C9.27525 6.76206 9.6991 6.93759 10.0116 7.25004ZM25.9883 9.60671C25.8291 9.45296 25.7022 9.26905 25.6148 9.06571C25.5275 8.86237 25.4815 8.64367 25.4796 8.42238C25.4776 8.20108 25.5198 7.98161 25.6036 7.77678C25.6874 7.57196 25.8112 7.38587 25.9677 7.22938C26.1241 7.07289 26.3102 6.94914 26.5151 6.86534C26.7199 6.78153 26.9394 6.73937 27.1606 6.74129C27.3819 6.74321 27.6006 6.78919 27.804 6.87654C28.0073 6.96389 28.1912 7.09086 28.345 7.25004L35.4166 14.3217C35.7291 14.6343 35.9046 15.0581 35.9046 15.5C35.9046 15.942 35.7291 16.3658 35.4166 16.6784L28.345 23.7484C28.0306 24.052 27.6096 24.22 27.1726 24.2162C26.7357 24.2124 26.3176 24.0371 26.0086 23.7281C25.6996 23.4191 25.5243 23.001 25.5205 22.564C25.5167 22.127 25.6847 21.706 25.9883 21.3917L31.88 15.5L25.9883 9.60671Z" fill="white"/>
</svg>
