<svg width="40" height="41" viewBox="0 0 40 41" fill="none" xmlns="http://www.w3.org/2000/svg">
<g clip-path="url(#clip0_77_82)">
<path d="M20 40.5C14.6957 40.5 9.60859 38.3929 5.85786 34.6421C2.10714 30.8914 0 25.8043 0 20.5C0 15.1957 2.10714 10.1086 5.85786 6.35786C9.60859 2.60714 14.6957 0.5 20 0.5C25.3043 0.5 30.3914 2.60714 34.1421 6.35786C37.8929 10.1086 40 15.1957 40 20.5C40 25.8043 37.8929 30.8914 34.1421 34.6421C30.3914 38.3929 25.3043 40.5 20 40.5ZM35.5 24.5C36.1765 21.8762 36.1765 19.1238 35.5 16.5H27.86C28.0453 19.1634 28.0453 21.8366 27.86 24.5H35.5ZM33.86 28.5H27.42C27.085 30.9107 26.4466 33.2694 25.52 35.52C29.0334 34.2239 31.9835 31.7408 33.86 28.5ZM16.16 24.5H23.84C24.0571 21.8378 24.0571 19.1622 23.84 16.5H16.16C15.9429 19.1622 15.9429 21.8378 16.16 24.5ZM16.66 28.5C17.48 33.3 18.92 36.5 20 36.5C21.08 36.5 22.52 33.3 23.34 28.5H16.66ZM4.5 24.5H12.14C11.9547 21.8366 11.9547 19.1634 12.14 16.5H4.5C3.82345 19.1238 3.82345 21.8762 4.5 24.5ZM6.14 28.5C8.01651 31.7408 10.9666 34.2239 14.48 35.52C13.64 33.6 13 31.2 12.58 28.5H6.14ZM33.86 12.5C31.9835 9.25921 29.0334 6.77607 25.52 5.48C26.36 7.4 27 9.8 27.42 12.5H33.86ZM16.66 12.5H23.34C22.52 7.7 21.08 4.5 20 4.5C18.92 4.5 17.48 7.7 16.66 12.5ZM6.14 12.5H12.58C12.98 9.8 13.64 7.4 14.48 5.48C10.9666 6.77607 8.01651 9.25921 6.14 12.5Z" fill="white"/>
</g>
<defs>
<clipPath id="clip0_77_82">
<rect width="40" height="40" fill="white" transform="translate(0 0.5)"/>
</clipPath>
</defs>
</svg>
