<svg width="67" height="64" viewBox="0 0 67 64" fill="none" xmlns="http://www.w3.org/2000/svg">
<path d="M20.9697 32C17.2234 32.1156 14.1594 33.5956 11.7775 36.44H7.12937C5.23312 36.44 3.63749 35.9717 2.34249 35.0352C1.04749 34.0986 0.399994 32.7284 0.399994 30.9247C0.399994 22.7616 1.83374 18.68 4.70124 18.68C4.83999 18.68 5.34296 18.9228 6.21015 19.4084C7.07734 19.8941 8.20468 20.3855 9.59218 20.8827C10.9797 21.3798 12.3556 21.6284 13.72 21.6284C15.2694 21.6284 16.8072 21.3625 18.3334 20.8306C18.2178 21.6863 18.16 22.4494 18.16 23.12C18.16 26.3344 19.0966 29.2944 20.9697 32ZM58.12 54.0959C58.12 56.8709 57.2759 59.062 55.5878 60.6692C53.8997 62.2764 51.6566 63.08 48.8584 63.08H18.5416C15.7434 63.08 13.5003 62.2764 11.8122 60.6692C10.1241 59.062 9.27999 56.8709 9.27999 54.0959C9.27999 52.8703 9.32046 51.6736 9.4014 50.5058C9.48234 49.338 9.64421 48.0777 9.88702 46.7248C10.1298 45.372 10.4362 44.1175 10.8062 42.9613C11.1762 41.805 11.6734 40.6777 12.2978 39.5792C12.9222 38.4808 13.6391 37.5442 14.4484 36.7695C15.2578 35.9948 16.2464 35.3763 17.4142 34.9138C18.582 34.4513 19.8712 34.22 21.2819 34.22C21.5131 34.22 22.0103 34.4686 22.7734 34.9658C23.5366 35.463 24.3806 36.018 25.3056 36.6308C26.2306 37.2436 27.4678 37.7986 29.0172 38.2958C30.5666 38.793 32.1275 39.0416 33.7 39.0416C35.2725 39.0416 36.8334 38.793 38.3828 38.2958C39.9322 37.7986 41.1694 37.2436 42.0944 36.6308C43.0194 36.018 43.8634 35.463 44.6266 34.9658C45.3897 34.4686 45.8869 34.22 46.1181 34.22C47.5287 34.22 48.818 34.4513 49.9858 34.9138C51.1536 35.3763 52.1422 35.9948 52.9516 36.7695C53.7609 37.5442 54.4778 38.4808 55.1022 39.5792C55.7266 40.6777 56.2237 41.805 56.5937 42.9613C56.9637 44.1175 57.2701 45.372 57.513 46.7248C57.7558 48.0777 57.9177 49.338 57.9986 50.5058C58.0795 51.6736 58.12 52.8703 58.12 54.0959ZM22.6 9.8C22.6 12.2513 21.7328 14.3441 19.9984 16.0784C18.2641 17.8128 16.1712 18.68 13.72 18.68C11.2687 18.68 9.17593 17.8128 7.44156 16.0784C5.70718 14.3441 4.83999 12.2513 4.83999 9.8C4.83999 7.34875 5.70718 5.25594 7.44156 3.52156C9.17593 1.78719 11.2687 0.920002 13.72 0.920002C16.1712 0.920002 18.2641 1.78719 19.9984 3.52156C21.7328 5.25594 22.6 7.34875 22.6 9.8ZM47.02 23.12C47.02 26.7969 45.7192 29.9361 43.1176 32.5377C40.5161 35.1392 37.3769 36.44 33.7 36.44C30.0231 36.44 26.8839 35.1392 24.2823 32.5377C21.6808 29.9361 20.38 26.7969 20.38 23.12C20.38 19.4431 21.6808 16.3039 24.2823 13.7023C26.8839 11.1008 30.0231 9.8 33.7 9.8C37.3769 9.8 40.5161 11.1008 43.1176 13.7023C45.7192 16.3039 47.02 19.4431 47.02 23.12ZM67 30.9247C67 32.7284 66.3525 34.0986 65.0575 35.0352C63.7625 35.9717 62.1669 36.44 60.2706 36.44H55.6225C53.2406 33.5956 50.1766 32.1156 46.4303 32C48.3034 29.2944 49.24 26.3344 49.24 23.12C49.24 22.4494 49.1822 21.6863 49.0666 20.8306C50.5928 21.3625 52.1306 21.6284 53.68 21.6284C55.0444 21.6284 56.4203 21.3798 57.8078 20.8827C59.1953 20.3855 60.3227 19.8941 61.1898 19.4084C62.057 18.9228 62.56 18.68 62.6987 18.68C65.5662 18.68 67 22.7616 67 30.9247ZM62.56 9.8C62.56 12.2513 61.6928 14.3441 59.9584 16.0784C58.2241 17.8128 56.1312 18.68 53.68 18.68C51.2287 18.68 49.1359 17.8128 47.4016 16.0784C45.6672 14.3441 44.8 12.2513 44.8 9.8C44.8 7.34875 45.6672 5.25594 47.4016 3.52156C49.1359 1.78719 51.2287 0.920002 53.68 0.920002C56.1312 0.920002 58.2241 1.78719 59.9584 3.52156C61.6928 5.25594 62.56 7.34875 62.56 9.8Z" fill="#197F00"/>
</svg>
