<svg width="39" height="37" viewBox="0 0 39 37" fill="none" xmlns="http://www.w3.org/2000/svg">
<path d="M19.125 17.375V1.66719C19.125 1.03438 19.6172 0.5 20.25 0.5C28.9477 0.5 36 7.55234 36 16.25C36 16.8828 35.4656 17.375 34.8328 17.375H19.125ZM0 19.625C0 11.0961 6.33516 4.03672 14.5547 2.91172C15.2016 2.82031 15.75 3.34063 15.75 3.99453V20.75L26.7539 31.7539C27.225 32.225 27.1898 32.9984 26.6484 33.3781C23.8922 35.3469 20.5172 36.5 16.875 36.5C7.55859 36.5 0 28.9484 0 19.625ZM37.0125 20.75C37.6664 20.75 38.1797 21.2984 38.0953 21.9453C37.5539 25.8758 35.6625 29.3703 32.8992 31.9508C32.4773 32.3445 31.8164 32.3164 31.4086 31.9016L20.25 20.75H37.0125Z" fill="white"/>
</svg>
