<svg width="36" height="35" viewBox="0 0 36 35" fill="none" xmlns="http://www.w3.org/2000/svg">
<path d="M18.8312 0.39375C18.3051 0.144523 17.6949 0.144523 17.1688 0.39375L1.85625 6.825L1.75073 6.86925C0.993033 7.18699 0.5 7.92838 0.5 8.75C0.5 16.0125 3.43125 22.4 6.93125 27.0813C8.68125 29.4 10.5625 31.325 12.4 32.6813C14.2375 34.0375 16.0313 35 18 35C20.0125 35 21.7625 34.0375 23.6 32.6813C25.4375 31.325 27.3188 29.4 29.0688 27.0813C32.5688 22.4 35.5 16.0125 35.5 8.75C35.5 7.92838 35.007 7.187 34.2493 6.86925L34.1437 6.825L18.8312 0.39375ZM18 4.76875V30.625C17.825 30.625 16.5562 30.3188 15.1125 29.2688C13.6687 28.2188 12.0063 26.5125 10.475 24.5C7.36781 20.3214 5.51628 15.3435 5.1375 10.15L18 4.8125V4.76875Z" fill="white"/>
</svg>
