<svg width="66" height="66" viewBox="0 0 66 66" fill="none" xmlns="http://www.w3.org/2000/svg">
<path fill-rule="evenodd" clip-rule="evenodd" d="M28.6402 2.47501C29.7317 1.38497 31.192 0.743572 32.7331 0.677361C34.2743 0.611149 35.7843 1.12493 36.9652 2.11734L37.3599 2.47809L43.2182 8.33334H51.5C53.0553 8.33363 54.553 8.92155 55.6931 9.97934C56.8332 11.0371 57.5315 12.4866 57.6482 14.0375L57.6667 14.5V22.7818L63.525 28.6402C64.6159 29.7318 65.2579 31.1928 65.3241 32.7346C65.3903 34.2765 64.876 35.7871 63.8827 36.9683L63.5219 37.3598L57.6636 43.2182V51.5C57.6641 53.0558 57.0765 54.5542 56.0187 55.695C54.9608 56.8358 53.5108 57.5346 51.9594 57.6513L51.5 57.6667H43.2213L37.3629 63.525C36.2713 64.6159 34.8103 65.2578 33.2685 65.3241C31.7266 65.3903 30.216 64.876 29.0349 63.8827L28.6433 63.525L22.7849 57.6667H14.5C12.9443 57.6672 11.4458 57.0796 10.305 56.0217C9.16423 54.9639 8.46546 53.5139 8.34878 51.9625L8.33336 51.5V43.2182L2.47503 37.3598C1.38413 36.2682 0.74219 34.8072 0.675972 33.2654C0.609754 31.7235 1.12407 30.2129 2.11736 29.0318L2.47503 28.6402L8.33336 22.7818V14.5C8.33365 12.9448 8.92157 11.4471 9.97936 10.3069C11.0371 9.16681 12.4867 8.46848 14.0375 8.35184L14.5 8.33334H22.7819L28.6402 2.47501ZM42.4936 23.6976L29.4079 36.7833L23.9566 31.3319C23.3781 30.7538 22.5935 30.4291 21.7756 30.4294C20.9577 30.4297 20.1734 30.7549 19.5952 31.3335C19.0171 31.912 18.6924 32.6966 18.6927 33.5145C18.693 34.3324 19.0182 35.1167 19.5968 35.6948L27.0091 43.1072C27.3241 43.4223 27.698 43.6723 28.1096 43.8428C28.5212 44.0133 28.9624 44.1011 29.4079 44.1011C29.8535 44.1011 30.2946 44.0133 30.7062 43.8428C31.1178 43.6723 31.4918 43.4223 31.8068 43.1072L46.8534 28.0574C47.4151 27.4759 47.7259 26.697 47.7189 25.8886C47.7118 25.0802 47.3876 24.3068 46.8159 23.7351C46.2442 23.1635 45.4709 22.8392 44.6624 22.8322C43.854 22.8252 43.0751 23.1359 42.4936 23.6976Z" fill="#197F00"/>
</svg>
