<svg width="359" height="407" viewBox="0 0 359 407" fill="none" xmlns="http://www.w3.org/2000/svg">
<path opacity="0.2" d="M165.024 1V0H164.024V1H165.024ZM242.976 1H243.976V0H242.976V1ZM165.024 109.904L164.317 110.611L166.024 112.318V109.904H165.024ZM88.0175 32.8974L88.7247 32.1903L88.0175 31.4832L87.3104 32.1903L88.0175 32.8974ZM32.8972 88.0178L32.1901 87.3107L31.483 88.0178L32.1901 88.7249L32.8972 88.0178ZM109.903 165.024V166.024H112.318L110.611 164.317L109.903 165.024ZM1 165.024V164.024H3.45707e-06L3.39746e-06 165.024H1ZM1 242.976H0V243.976H1V242.976ZM109.904 242.976L110.611 243.683L112.318 241.976H109.904V242.976ZM32.8976 319.982L32.1905 319.275L31.4834 319.982L32.1905 320.689L32.8976 319.982ZM88.0179 375.103L87.3108 375.81L88.0179 376.517L88.7251 375.81L88.0179 375.103ZM165.024 298.097H166.024V295.683L164.317 297.39L165.024 298.097ZM165.024 407H164.024V408H165.024V407ZM242.976 407V408H243.976V407H242.976ZM242.976 298.096L243.683 297.389L241.976 295.682V298.096H242.976ZM319.983 375.103L319.275 375.81L319.983 376.517L320.69 375.81L319.983 375.103ZM375.103 319.983L375.81 320.69L376.517 319.983L375.81 319.276L375.103 319.983ZM298.096 242.976V241.976H295.682L297.389 243.683L298.096 242.976ZM407 242.976V243.976H408V242.976H407ZM407 165.024H408V164.024H407V165.024ZM298.097 165.024L297.39 164.317L295.682 166.024H298.097V165.024ZM375.103 88.0174L375.81 88.7245L376.518 88.0174L375.81 87.3103L375.103 88.0174ZM319.983 32.897L320.69 32.1899L319.983 31.4828L319.276 32.1899L319.983 32.897ZM242.976 109.904H241.976V112.318L243.683 110.611L242.976 109.904ZM165.024 2H242.976V0H165.024V2ZM166.024 109.904V1H164.024V109.904H166.024ZM87.3104 33.6045L164.317 110.611L165.731 109.197L88.7247 32.1903L87.3104 33.6045ZM33.6043 88.7249L88.7247 33.6045L87.3104 32.1903L32.1901 87.3107L33.6043 88.7249ZM110.611 164.317L33.6043 87.3107L32.1901 88.7249L109.196 165.731L110.611 164.317ZM1 166.024H109.903V164.024H1V166.024ZM2 242.976L2 165.024H3.39746e-06L0 242.976H2ZM109.904 241.976H1V243.976H109.904V241.976ZM33.6047 320.689L110.611 243.683L109.197 242.269L32.1905 319.275L33.6047 320.689ZM88.7251 374.396L33.6047 319.275L32.1905 320.689L87.3108 375.81L88.7251 374.396ZM164.317 297.39L87.3108 374.396L88.7251 375.81L165.731 298.804L164.317 297.39ZM166.024 407V298.097H164.024V407H166.024ZM242.976 406H165.024V408H242.976V406ZM241.976 298.096V407H243.976V298.096H241.976ZM320.69 374.396L243.683 297.389L242.269 298.804L319.275 375.81L320.69 374.396ZM374.396 319.276L319.275 374.396L320.69 375.81L375.81 320.69L374.396 319.276ZM297.389 243.683L374.396 320.69L375.81 319.276L298.803 242.269L297.389 243.683ZM407 241.976H298.096V243.976H407V241.976ZM406 165.024V242.976H408V165.024H406ZM298.097 166.024H407V164.024H298.097V166.024ZM374.396 87.3103L297.39 164.317L298.804 165.731L375.81 88.7245L374.396 87.3103ZM319.276 33.6041L374.396 88.7245L375.81 87.3103L320.69 32.1899L319.276 33.6041ZM243.683 110.611L320.69 33.6041L319.276 32.1899L242.269 109.197L243.683 110.611ZM241.976 1V109.904H243.976V1H241.976Z" fill="white"/>
</svg>
